# xmcd
#
# Track frame offsets:
#	182
#	18727
#	34985
#	74525
#	107802
#	142020
#
# Disc length: 2349 seconds
#
# Revision: 6
# Processed by: cddbd v1.5.2PL0 Copyright (c) Steve Scherf et al.
# Submitted via: EasyCDDAExtractor 15.3.0.1
#
DISCID=5a092b06
DTITLE=Cher - One By One
DYEAR=1996
DGENRE=R&B/Pop
TTITLE0=One By One
TTITLE1=I Wouldn't Treat A Dog (The Way You Treated Me)
TTITLE2=One By One (Junior Vasquez Club Vocal Mix)
TTITLE3=One By One (Junior Vazquez Club Dub)
TTITLE4=One By One (X Beat Mix)
TTITLE5=One By One (X Beat Dub)
EXTD=YEAR: 1996
EXTT0=
EXTT1=
EXTT2=
EXTT3=
EXTT4=
EXTT5=
PLAYORDER=
